<?xml version="1.0" encoding="UTF-8"?>
<svg width="32px" height="32px" viewBox="0 0 32 32" version="1.1" xmlns="http://www.w3.org/2000/svg" xmlns:xlink="http://www.w3.org/1999/xlink">
    <!-- Generator: Sketch 49 (51002) - http://www.bohemiancoding.com/sketch -->
    <title>ic_me@1x</title>
    <desc>Created with Sketch.</desc>
    <defs></defs>
    <g id="Page-2" stroke="none" stroke-width="1" fill="none" fill-rule="evenodd">
        <g id="1-默认30min" transform="translate(-172.000000, -730.000000)" stroke-width="1.5">
            <g id="ic_me" transform="translate(172.000000, 730.000000)">
                <path d="M20.0490531,18.4688934 L19.4741612,17.9729459 L19.97712,17.4041779 C20.5724479,16.7309549 21.0526952,15.9389688 21.3737164,15.0959908 L21.4748877,14.8303224 L21.726738,14.6984634 C21.8612726,14.6280264 21.9862797,14.544261 22.1078095,14.4420259 C23.1844876,13.5362867 23.3990308,10.6268685 22.2813333,9.99995825 L21.8859267,9.7781769 L21.8985206,9.32499396 C21.9221684,8.47404165 21.8040019,7.80687693 21.5091306,7.12929574 C20.5486494,4.92221753 18.7644472,3.73214286 16.0004349,3.73214286 C13.203509,3.73214286 11.2874449,5.02105271 10.4770866,7.16320564 C10.2197329,7.84351077 10.1126757,8.4936816 10.1215887,9.32698551 L10.1263951,9.77635317 L9.732413,9.99253022 C8.63791149,10.5930807 8.79376941,13.4706167 9.88764069,14.4372564 C10.0398643,14.5815089 10.1648694,14.6735503 10.2933401,14.7408999 L10.5420389,14.871278 L10.6439611,15.1329292 C10.9656749,15.9588227 11.4423661,16.7380569 12.0302211,17.4024508 L12.5327854,17.9704491 L11.9592155,18.4666451 C11.8388582,18.5707664 11.7146121,18.6711774 11.5870616,18.7671501 C11.1149128,19.1224087 10.6218491,19.3979033 10.1186927,19.5808692 C6.44258279,20.9176365 5.07286147,22.3579022 4.54591884,25.5195579 C4.32135614,26.8669341 5.35936545,27.5406379 8.61679934,28.0576909 C10.5625422,28.366539 13.2184168,28.5357143 16,28.5357143 C18.7815832,28.5357143 21.4374578,28.366539 23.3832007,28.0576909 C26.6406345,27.5406379 27.6786439,26.8669341 27.4540812,25.5195579 C26.9271385,22.3579022 25.5574172,20.9176365 21.8813073,19.5808692 C21.3816067,19.3991599 20.8876695,19.1215236 20.4115925,18.7618336 C20.2876729,18.6682087 20.1666428,18.5703356 20.0490531,18.4688934 Z" id="Path-18" stroke="#979797" fill-rule="nonzero"></path>
                <path d="M21.8648461,9.84686622 C22.0163714,9.88546245 22.1102093,9.91497059 22.2188801,9.96742467 C23.5384179,10.6043494 23.0219743,13.6729985 22.1078095,14.4420259 C21.9613618,14.5652228 21.8123415,14.6593526 21.6535611,14.7350289 C21.5938685,14.763479 21.53529,14.7882332 21.475244,14.8117666 C20.6246599,17.3589148 18.3413432,19.4285714 16,19.4285714 C13.6707716,19.4285714 11.4118375,17.3642222 10.5382365,14.8434161 C10.2970681,14.7606234 10.1189065,14.6559839 9.88912297,14.4386501 C8.95007733,13.677571 8.49345458,10.5916738 9.77996837,9.96798171 C9.88738522,9.91590683 9.98043392,9.88369576 10.1398056,9.83599955 C10.076824,8.75658028 10.1687339,7.97832486 10.4770866,7.16320564 C11.2266217,5.18183661 13.0291342,3.73214286 16.0004349,3.73214286 C18.9456701,3.73214286 20.6271457,5.10259339 21.5091306,7.12929574 C21.8596203,7.93468179 21.9575008,8.73083788 21.8648461,9.84686622 Z" id="Path-18" stroke="#999999"></path>
            </g>
        </g>
    </g>
</svg>